<svg xmlns="http://www.w3.org/2000/svg" xmlns:xlink="http://www.w3.org/1999/xlink" width="100" zoomAndPan="magnify" viewBox="0 0 390.75 299.999988" height="400" preserveAspectRatio="xMidYMid meet" version="1.0"><defs><clipPath id="e75550d85c"><path d="M 124 75.097656 L 176 75.097656 L 176 209 L 124 209 Z M 124 75.097656 " clip-rule="nonzero"/></clipPath><clipPath id="baf5395bbc"><path d="M 75.542969 185 L 142 185 L 142 219 L 75.542969 219 Z M 75.542969 185 " clip-rule="nonzero"/></clipPath><clipPath id="52d6511628"><path d="M 165.75 75.097656 L 315.75 75.097656 L 315.75 223.597656 L 165.75 223.597656 Z M 165.75 75.097656 " clip-rule="nonzero"/></clipPath></defs><g clip-path="url(#e75550d85c)"><path fill="#fdc807" d="M 175.980469 75.097656 L 175.980469 174.53125 C 175.980469 205.996094 149.183594 216.910156 124.5 202.683594 C 141.25 202.921875 143.832031 189.730469 143.832031 164.960938 C 143.832031 143.613281 143.832031 127.078125 143.832031 105.730469 C 143.832031 87.804688 140.875 84.648438 128.03125 84.648438 C 128.03125 81.464844 128.03125 78.28125 128.03125 75.097656 C 144.015625 75.097656 159.996094 75.097656 175.980469 75.097656 Z M 175.980469 75.097656 " fill-opacity="1" fill-rule="evenodd"/></g><g clip-path="url(#baf5395bbc)"><path fill="#fdc807" d="M 108.878906 185.628906 C 110.117188 205.003906 123.71875 213.316406 141.730469 215.664062 C 99.398438 225.09375 79.605469 205.273438 75.605469 185.628906 Z M 108.878906 185.628906 " fill-opacity="1" fill-rule="evenodd"/></g><path fill="#fdc807" d="M 278.363281 110.09375 C 278.628906 109.816406 278.929688 109.535156 278.988281 109.460938 C 279.90625 108.328125 280.667969 107.046875 281.238281 105.707031 C 282.808594 102.039062 283.0625 98.296875 282.554688 94.375 C 282.398438 93.195312 282.199219 92.019531 282.019531 90.84375 C 282 90.699219 281.96875 89.859375 281.792969 89.800781 C 281.660156 89.757812 281.265625 90.867188 281.230469 90.957031 C 280.667969 92.324219 280.066406 93.6875 279.40625 95.011719 C 277.570312 98.699219 275.804688 102.542969 275.5625 106.71875 C 275.480469 108.136719 275.542969 110.09375 276.636719 111.214844 C 275.511719 118.601562 276.921875 125.929688 277.261719 133.335938 C 277.113281 132.65625 276.945312 131.976562 276.753906 131.304688 C 275.09375 125.359375 271.867188 120.363281 267.265625 116.289062 C 266.273438 115.40625 265.257812 114.554688 264.21875 113.730469 C 264.097656 113.632812 263.390625 112.941406 263.230469 113.046875 C 262.992188 113.207031 263.347656 114.582031 263.378906 114.808594 C 263.671875 116.734375 264.03125 118.648438 264.328125 120.574219 C 265.285156 126.75 268.539062 132.117188 272.765625 136.605469 C 273.824219 137.726562 275.507812 139.792969 277.152344 140.347656 C 276.5625 146.992188 274.539062 153.261719 271.5 159.167969 C 271.699219 158.296875 271.878906 157.421875 272.039062 156.542969 C 272.726562 152.847656 273.464844 147.945312 272.027344 144.210938 C 272.257812 144.078125 272.472656 143.898438 272.652344 143.683594 C 273.460938 142.707031 273.324219 141.257812 272.347656 140.453125 C 271.371094 139.644531 269.921875 139.78125 269.113281 140.757812 C 268.308594 141.734375 268.445312 143.179688 269.421875 143.988281 C 269.746094 144.257812 270.121094 144.421875 270.511719 144.484375 C 272.023438 147.988281 271.214844 152.726562 270.558594 156.269531 C 270.46875 156.742188 270.378906 157.21875 270.277344 157.691406 C 270.566406 152.945312 270.03125 148.023438 268.117188 143.652344 C 267.855469 143.058594 266.53125 139.472656 265.578125 139.5 C 265.332031 139.507812 265.289062 140.789062 265.261719 140.960938 C 265.019531 142.601562 264.601562 144.222656 264.164062 145.820312 C 262.652344 151.339844 262.714844 156.386719 264.824219 161.816406 C 265.433594 163.382812 266.734375 164.660156 267.367188 166.167969 C 265.574219 168.945312 263.714844 171.675781 261.910156 174.441406 C 261.894531 173.964844 261.875 173.492188 261.855469 173.019531 C 261.71875 170.179688 261.234375 167.410156 260.203125 164.753906 C 260.175781 164.691406 260.144531 164.632812 260.105469 164.582031 C 260.160156 164.527344 260.210938 164.472656 260.261719 164.414062 C 261.066406 163.4375 260.929688 161.988281 259.957031 161.179688 C 258.980469 160.375 257.53125 160.511719 256.722656 161.488281 C 255.914062 162.464844 256.054688 163.910156 257.027344 164.71875 C 257.535156 165.136719 258.167969 165.300781 258.773438 165.226562 C 258.777344 165.253906 258.789062 165.277344 258.796875 165.300781 C 259.769531 167.804688 260.222656 170.414062 260.347656 173.089844 C 260.390625 174.023438 260.425781 174.960938 260.4375 175.894531 C 260.441406 176.03125 260.359375 176.226562 260.308594 176.40625 C 260.242188 176.660156 260.195312 176.898438 260.199219 177.078125 L 260.203125 177.101562 C 258.519531 179.773438 256.921875 182.496094 255.511719 185.34375 C 254.628906 187.125 255.992188 187.765625 256.859375 186.011719 C 258.105469 183.5 259.496094 181.085938 260.964844 178.71875 C 261.460938 178.5 262.003906 178.292969 262.050781 178.277344 C 264.328125 177.449219 266.835938 177.046875 269.234375 176.804688 C 274.875 176.238281 279.269531 174.351562 282.515625 169.527344 C 283.007812 168.792969 285.039062 166.140625 284.703125 165.105469 C 284.679688 165.035156 283.394531 165.585938 283.304688 165.617188 C 281.6875 166.207031 280.089844 166.8125 278.496094 167.460938 C 274.859375 168.945312 271.332031 170.574219 267.789062 172.269531 C 266.367188 172.949219 265.015625 173.539062 263.785156 174.324219 C 265.90625 171.101562 268.085938 167.914062 270.128906 164.632812 C 272.355469 161.050781 274.238281 157.328125 275.671875 153.464844 C 276.121094 153.488281 276.875 153.640625 277.175781 153.625 C 278.59375 153.558594 279.996094 153.3125 281.367188 152.945312 C 287.1875 151.386719 292.09375 147.339844 295.402344 142.382812 C 296.480469 140.769531 297.496094 139.089844 298.320312 137.332031 C 298.433594 137.09375 299.074219 135.96875 298.761719 135.6875 C 298.609375 135.550781 297.507812 136.570312 297.378906 136.664062 C 295.941406 137.722656 294.335938 138.484375 292.785156 139.347656 C 287.902344 142.0625 282.898438 144.988281 278.714844 148.777344 C 279.203125 147.890625 279.699219 147.003906 280.214844 146.132812 C 282.558594 142.167969 285 138.429688 288.617188 135.527344 C 288.628906 135.515625 288.640625 135.507812 288.652344 135.496094 C 289.613281 136.105469 290.902344 135.921875 291.644531 135.019531 C 292.453125 134.042969 292.316406 132.597656 291.339844 131.789062 C 290.363281 130.980469 288.917969 131.117188 288.109375 132.09375 C 287.578125 132.738281 287.457031 133.585938 287.714844 134.320312 C 287.699219 134.332031 287.6875 134.339844 287.675781 134.351562 C 283.914062 137.371094 281.355469 141.242188 278.914062 145.367188 C 278.371094 146.285156 277.851562 147.21875 277.335938 148.15625 C 278.230469 144.652344 278.746094 141.039062 278.828125 137.3125 C 278.886719 134.398438 278.679688 131.496094 278.425781 128.601562 C 278.496094 128.421875 278.628906 127.972656 278.742188 127.800781 C 279.101562 127.25 279.5 126.710938 279.929688 126.210938 C 281.152344 124.78125 282.582031 123.535156 284.003906 122.3125 C 288.671875 118.296875 292.261719 114.46875 294.359375 108.515625 C 294.835938 107.171875 295.25 105.792969 295.480469 104.382812 C 295.507812 104.214844 295.773438 103.148438 295.601562 103 C 295.523438 102.9375 294.292969 104.160156 294.207031 104.238281 C 292.695312 105.539062 291.097656 106.746094 289.523438 107.96875 C 285.894531 110.792969 283.707031 114.449219 281.453125 118.382812 C 280.816406 119.492188 280.210938 120.519531 279.664062 121.527344 C 279.878906 120.382812 280.128906 119.246094 280.433594 118.121094 C 281.707031 113.460938 283.449219 108.972656 286.085938 104.917969 C 286.925781 105.148438 287.863281 104.882812 288.453125 104.167969 C 289.261719 103.191406 289.125 101.742188 288.148438 100.9375 C 287.171875 100.128906 285.726562 100.265625 284.917969 101.242188 C 284.230469 102.070312 284.226562 103.238281 284.839844 104.066406 C 282.109375 108.261719 280.296875 112.902344 278.980469 117.722656 C 278.527344 119.378906 278.199219 121.058594 277.917969 122.75 C 277.605469 118.535156 277.523438 114.328125 278.363281 110.09375 Z M 278.363281 110.09375 " fill-opacity="1" fill-rule="evenodd"/><g clip-path="url(#52d6511628)"><path fill="#fdc807" d="M 262.648438 182.574219 L 252.675781 178.933594 L 249.921875 185.777344 L 210.269531 96.5625 C 208.507812 92.59375 207.550781 89.4375 207.40625 87.085938 C 207.40625 83.710938 208.800781 81.582031 211.589844 80.699219 C 214.527344 79.964844 218.710938 79.597656 224.144531 79.597656 L 224.144531 75.191406 L 165.765625 75.191406 L 165.765625 79.597656 C 170.90625 79.597656 174.875 80.773438 177.667969 83.121094 C 180.160156 85.324219 182.507812 88.554688 184.710938 92.816406 L 243.535156 223.449219 L 246.394531 223.449219 Z M 286.8125 91.433594 L 297.355469 95.289062 C 299.824219 89.070312 302.378906 84.941406 304.996094 82.902344 C 307.933594 80.699219 311.527344 79.597656 315.789062 79.597656 L 315.789062 75.191406 L 270.628906 75.191406 L 270.628906 79.597656 C 281.496094 79.597656 286.929688 82.902344 286.929688 89.511719 C 286.929688 90.121094 286.890625 90.761719 286.8125 91.433594 Z M 286.8125 91.433594 " fill-opacity="1" fill-rule="nonzero"/></g></svg>